<svg width="126" height="72" viewBox="0 0 126 72" fill="none" xmlns="http://www.w3.org/2000/svg">
<g filter="url(#filter0_dd_18_2411)">
<rect x="9" y="4" width="40" height="40" rx="10" fill="white"/>
</g>
<path d="M73.616 18.584H69.752L66.896 32H61.712L64.568 18.584H60.752L61.184 16.76H74.024L73.616 18.584ZM78.4053 21.416C80.3093 21.416 81.6933 21.752 82.5573 22.424C83.4693 23.128 83.9253 24.296 83.9253 25.928C83.9253 26.936 83.7573 27.848 83.4213 28.664C83.0853 29.464 82.6133 30.128 82.0053 30.656C80.7893 31.68 79.0293 32.192 76.7253 32.192C74.7573 32.192 73.3493 31.816 72.5013 31.064C71.5893 30.28 71.1333 29.104 71.1333 27.536C71.1333 26.496 71.3413 25.552 71.7573 24.704C72.1893 23.856 72.8053 23.152 73.6053 22.592C74.7733 21.808 76.3733 21.416 78.4053 21.416ZM76.7733 30.56C77.1733 30.56 77.5173 30.336 77.8053 29.888C78.1093 29.44 78.3493 28.896 78.5253 28.256C78.7013 27.6 78.8293 26.928 78.9093 26.24C79.0053 25.536 79.0533 24.928 79.0533 24.416C79.0533 23.968 79.0053 23.632 78.9093 23.408C78.8293 23.168 78.6453 23.048 78.3573 23.048C77.9253 23.048 77.5493 23.28 77.2293 23.744C76.9253 24.208 76.6773 24.76 76.4853 25.4C76.2933 26.04 76.1493 26.696 76.0533 27.368C75.9733 28.04 75.9333 28.584 75.9333 29C75.9333 30.04 76.2133 30.56 76.7733 30.56ZM94.784 15.872H99.704L96.272 32H92.384L91.952 30.464H91.784C91.688 30.608 91.536 30.784 91.328 30.992C91.136 31.184 90.888 31.376 90.584 31.568C90.28 31.744 89.92 31.888 89.504 32C89.088 32.128 88.608 32.192 88.064 32.192C87.504 32.192 87.024 32.112 86.624 31.952C86.24 31.776 85.92 31.544 85.664 31.256C85.424 30.968 85.248 30.624 85.136 30.224C85.024 29.808 84.968 29.36 84.968 28.88C84.968 28.672 84.984 28.344 85.016 27.896C85.048 27.432 85.12 26.928 85.232 26.384C85.36 25.824 85.536 25.256 85.76 24.68C86 24.088 86.312 23.552 86.696 23.072C87.096 22.592 87.584 22.2 88.16 21.896C88.736 21.576 89.432 21.416 90.248 21.416C90.504 21.416 90.776 21.44 91.064 21.488C91.352 21.536 91.624 21.624 91.88 21.752C92.152 21.88 92.392 22.064 92.6 22.304C92.808 22.544 92.96 22.856 93.056 23.24H93.224L94.784 15.872ZM91.856 23.768C91.472 23.768 91.152 23.984 90.896 24.416C90.64 24.832 90.432 25.32 90.272 25.88C90.112 26.44 89.992 27 89.912 27.56C89.848 28.12 89.816 28.536 89.816 28.808C89.816 29.128 89.864 29.4 89.96 29.624C90.056 29.832 90.24 29.936 90.512 29.936C90.672 29.936 90.824 29.904 90.968 29.84C91.128 29.76 91.272 29.672 91.4 29.576C91.544 29.464 91.664 29.352 91.76 29.24C91.856 29.128 91.936 29.032 92 28.952L92.936 24.584C92.824 24.408 92.672 24.232 92.48 24.056C92.304 23.864 92.096 23.768 91.856 23.768ZM106.362 21.416C108.266 21.416 109.65 21.752 110.514 22.424C111.426 23.128 111.882 24.296 111.882 25.928C111.882 26.936 111.714 27.848 111.378 28.664C111.042 29.464 110.57 30.128 109.962 30.656C108.746 31.68 106.986 32.192 104.682 32.192C102.714 32.192 101.306 31.816 100.458 31.064C99.5456 30.28 99.0896 29.104 99.0896 27.536C99.0896 26.496 99.2976 25.552 99.7136 24.704C100.146 23.856 100.762 23.152 101.562 22.592C102.73 21.808 104.33 21.416 106.362 21.416ZM104.73 30.56C105.13 30.56 105.474 30.336 105.762 29.888C106.066 29.44 106.306 28.896 106.482 28.256C106.658 27.6 106.786 26.928 106.866 26.24C106.962 25.536 107.01 24.928 107.01 24.416C107.01 23.968 106.962 23.632 106.866 23.408C106.786 23.168 106.602 23.048 106.314 23.048C105.882 23.048 105.506 23.28 105.186 23.744C104.882 24.208 104.634 24.76 104.442 25.4C104.25 26.04 104.106 26.696 104.01 27.368C103.93 28.04 103.89 28.584 103.89 29C103.89 30.04 104.17 30.56 104.73 30.56ZM120.316 21.416C122.22 21.416 123.604 21.752 124.468 22.424C125.38 23.128 125.836 24.296 125.836 25.928C125.836 26.936 125.668 27.848 125.332 28.664C124.996 29.464 124.524 30.128 123.916 30.656C122.7 31.68 120.94 32.192 118.636 32.192C116.668 32.192 115.26 31.816 114.412 31.064C113.5 30.28 113.044 29.104 113.044 27.536C113.044 26.496 113.252 25.552 113.668 24.704C114.1 23.856 114.716 23.152 115.516 22.592C116.684 21.808 118.284 21.416 120.316 21.416ZM118.684 30.56C119.084 30.56 119.428 30.336 119.716 29.888C120.02 29.44 120.26 28.896 120.436 28.256C120.612 27.6 120.74 26.928 120.82 26.24C120.916 25.536 120.964 24.928 120.964 24.416C120.964 23.968 120.916 23.632 120.82 23.408C120.74 23.168 120.556 23.048 120.268 23.048C119.836 23.048 119.46 23.28 119.14 23.744C118.836 24.208 118.588 24.76 118.396 25.4C118.204 26.04 118.06 26.696 117.964 27.368C117.884 28.04 117.844 28.584 117.844 29C117.844 30.04 118.124 30.56 118.684 30.56Z" fill="white"/>
<g filter="url(#filter1_dd_18_2411)">
<path d="M36.8848 18.584H33.0208L30.1648 32H24.9808L27.8368 18.584H24.0208L24.4528 16.76H37.2928L36.8848 18.584Z" fill="#367BF5"/>
</g>
<defs>
<filter id="filter0_dd_18_2411" x="3" y="0" width="52" height="52" filterUnits="userSpaceOnUse" color-interpolation-filters="sRGB">
<feFlood flood-opacity="0" result="BackgroundImageFix"/>
<feColorMatrix in="SourceAlpha" type="matrix" values="0 0 0 0 0 0 0 0 0 0 0 0 0 0 0 0 0 0 127 0" result="hardAlpha"/>
<feOffset dy="1"/>
<feGaussianBlur stdDeviation="1"/>
<feColorMatrix type="matrix" values="0 0 0 0 0.0295189 0 0 0 0 0.137798 0 0 0 0 0.187773 0 0 0 0.24 0"/>
<feBlend mode="multiply" in2="BackgroundImageFix" result="effect1_dropShadow_18_2411"/>
<feColorMatrix in="SourceAlpha" type="matrix" values="0 0 0 0 0 0 0 0 0 0 0 0 0 0 0 0 0 0 127 0" result="hardAlpha"/>
<feOffset dy="2"/>
<feGaussianBlur stdDeviation="3"/>
<feColorMatrix type="matrix" values="0 0 0 0 0.0295189 0 0 0 0 0.137798 0 0 0 0 0.187773 0 0 0 0.16 0"/>
<feBlend mode="multiply" in2="effect1_dropShadow_18_2411" result="effect2_dropShadow_18_2411"/>
<feBlend mode="normal" in="SourceGraphic" in2="effect2_dropShadow_18_2411" result="shape"/>
</filter>
<filter id="filter1_dd_18_2411" x="0.020752" y="8.76001" width="61.272" height="63.24" filterUnits="userSpaceOnUse" color-interpolation-filters="sRGB">
<feFlood flood-opacity="0" result="BackgroundImageFix"/>
<feColorMatrix in="SourceAlpha" type="matrix" values="0 0 0 0 0 0 0 0 0 0 0 0 0 0 0 0 0 0 127 0" result="hardAlpha"/>
<feOffset dy="6"/>
<feGaussianBlur stdDeviation="6"/>
<feColorMatrix type="matrix" values="0 0 0 0 0.211765 0 0 0 0 0.482353 0 0 0 0 0.960784 0 0 0 0.16 0"/>
<feBlend mode="multiply" in2="BackgroundImageFix" result="effect1_dropShadow_18_2411"/>
<feColorMatrix in="SourceAlpha" type="matrix" values="0 0 0 0 0 0 0 0 0 0 0 0 0 0 0 0 0 0 127 0" result="hardAlpha"/>
<feOffset dy="16"/>
<feGaussianBlur stdDeviation="12"/>
<feColorMatrix type="matrix" values="0 0 0 0 0.211765 0 0 0 0 0.482353 0 0 0 0 0.960784 0 0 0 0.16 0"/>
<feBlend mode="multiply" in2="effect1_dropShadow_18_2411" result="effect2_dropShadow_18_2411"/>
<feBlend mode="normal" in="SourceGraphic" in2="effect2_dropShadow_18_2411" result="shape"/>
</filter>
</defs>
</svg>
